<?xml version="1.0" encoding="UTF-8" standalone="no"?>
<svg
   xmlns:dc="http://purl.org/dc/elements/1.1/"
   xmlns:cc="http://creativecommons.org/ns#"
   xmlns:rdf="http://www.w3.org/1999/02/22-rdf-syntax-ns#"
   xmlns:svg="http://www.w3.org/2000/svg"
   xmlns="http://www.w3.org/2000/svg"
   xmlns:xlink="http://www.w3.org/1999/xlink"
   xmlns:sodipodi="http://sodipodi.sourceforge.net/DTD/sodipodi-0.dtd"
   xmlns:inkscape="http://www.inkscape.org/namespaces/inkscape"
   viewBox="0 0 64 64"
   version="1.1"
   id="svg5453"
   height="64"
   width="64"
   sodipodi:docname="folder-games.svg"
   inkscape:version="0.92.2 5c3e80d, 2017-08-06">
  <sodipodi:namedview
     pagecolor="#ffffff"
     bordercolor="#666666"
     borderopacity="1"
     objecttolerance="10"
     gridtolerance="10"
     guidetolerance="10"
     inkscape:pageopacity="0"
     inkscape:pageshadow="2"
     inkscape:window-width="1280"
     inkscape:window-height="995"
     id="namedview13"
     showgrid="false"
     inkscape:zoom="7.375"
     inkscape:cx="35.43198"
     inkscape:cy="38.717361"
     inkscape:window-x="1366"
     inkscape:window-y="0"
     inkscape:window-maximized="1"
     inkscape:current-layer="svg5453" />
  <defs
     id="defs5455">
    <linearGradient
       id="linearGradient831">
      <stop
         style="stop-color:#20bcfa;stop-opacity:1;"
         offset="0"
         id="stop827" />
      <stop
         style="stop-color:#46c7fc;stop-opacity:1"
         offset="1"
         id="stop829" />
    </linearGradient>
    <linearGradient
       xlink:href="#linearGradient831"
       id="linearGradient833"
       x1="32.010437"
       y1="57.89262"
       x2="31.962496"
       y2="15.119835"
       gradientUnits="userSpaceOnUse"
       gradientTransform="translate(0,-3.8146973e-6)" />
    <linearGradient
       gradientTransform="translate(-0.13559352,-0.1355932)"
       gradientUnits="userSpaceOnUse"
       y2="15"
       x2="32"
       y1="58"
       x1="32"
       id="linearGradient829"
       xlink:href="#linearGradient827" />
    <linearGradient
       id="linearGradient827">
      <stop
         id="stop823"
         offset="0"
         style="stop-color:#cd2b2b;stop-opacity:1" />
      <stop
         id="stop825"
         offset="1"
         style="stop-color:#da4646;stop-opacity:1" />
    </linearGradient>
  </defs>
  <metadata
     id="metadata5458">
    <rdf:RDF>
      <cc:Work
         rdf:about="">
        <dc:format>image/svg+xml</dc:format>
        <dc:type
           rdf:resource="http://purl.org/dc/dcmitype/StillImage" />
        <dc:title></dc:title>
      </cc:Work>
    </rdf:RDF>
  </metadata>
  <path
     inkscape:connector-curvature="0"
     id="folderTab"
     d="m 3.8644065,5.864407 c -0.55122,0.05512 -1,0.446 -1,1 v 2 40 H 60.864406 v -35 -1 -2 c 0,-1 -1,-1 -1,-1 h -2 -21 -4 c -2,-4 -6,-4 -6,-4 H 4.8644065 Z"
     style="fill:#9a2020;fill-opacity:1;fill-rule:evenodd;stroke:none;stroke-width:1px;stroke-linecap:butt;stroke-linejoin:miter;stroke-opacity:1" />
  <path
     inkscape:connector-curvature="0"
     id="folderPaper-4"
     d="M 6.8644065,12.864407 H 56.864406 v 32 H 6.8644065 Z"
     style="color:#000000;text-decoration:none;text-decoration-line:none;text-decoration-style:solid;text-decoration-color:#000000;white-space:normal;clip-rule:nonzero;display:inline;overflow:visible;visibility:visible;opacity:1;isolation:auto;mix-blend-mode:normal;color-interpolation:sRGB;color-interpolation-filters:linearRGB;solid-color:#000000;solid-opacity:1;fill:#ffffff;fill-opacity:1;fill-rule:nonzero;stroke:none;stroke-width:1;stroke-linecap:butt;stroke-linejoin:miter;stroke-miterlimit:4;stroke-dasharray:none;stroke-dashoffset:0;stroke-opacity:1;color-rendering:auto;image-rendering:auto;shape-rendering:auto;text-rendering:auto;enable-background:accumulate" />
  <path
     inkscape:connector-curvature="0"
     id="folderFront-8"
     d="m 38.864406,14.864407 c 0,0 -4,0 -6,4 h -4 -24.9999995 -2 c 0,0 -0.131979,0.01691 -0.289062,0.05859 -0.04596,0.01404 -0.09192,0.02277 -0.134766,0.04297 -0.27423,0.109838 -0.57617202,0.34321 -0.57617202,0.89844 v 2 1 34 c 0,0.55397 0.44603002,1 1.00000002,1 H 61.864406 c 0.55397,0 1,-0.44603 1,-1 v -39 -2 c 0,-0.55397 -0.44603,-1 -1,-1 h -1 z"
     style="fill:url(#linearGradient829);fill-opacity:1.0;fill-rule:evenodd;stroke:none;stroke-width:1px;stroke-linecap:butt;stroke-linejoin:miter;stroke-opacity:1" />
  <path
     inkscape:connector-curvature="0"
     id="folderShadow-2"
     d="m 0.86440648,56.864407 c 0,0.55397 0.44603002,1 1.00000002,1 H 61.864406 c 0.55397,0 1,-0.44603 1,-1 z"
     style="opacity:0.25;fill:#000000;fill-opacity:1;stroke:none" />
  <path
     inkscape:connector-curvature="0"
     style="color:#000000;text-decoration:none;text-decoration-line:none;text-decoration-style:solid;text-decoration-color:#000000;white-space:normal;clip-rule:nonzero;display:inline;overflow:visible;visibility:visible;opacity:1;isolation:auto;mix-blend-mode:normal;color-interpolation:sRGB;color-interpolation-filters:linearRGB;solid-color:#000000;solid-opacity:1;fill:#fffbec;fill-opacity:1;fill-rule:nonzero;stroke:none;stroke-width:0.2759482;stroke-linecap:butt;stroke-linejoin:miter;stroke-miterlimit:4;stroke-dasharray:none;stroke-dashoffset:0;stroke-opacity:1;color-rendering:auto;image-rendering:auto;shape-rendering:auto;text-rendering:auto;enable-background:accumulate"
     d="M 6.9680983,13.27245 H 28.760716 v 5.590694 H 6.9680983 Z"
     id="folderPaper-6-3" />
  <g
     style="opacity:1;fill:#ffffff;fill-opacity:0.39215686"
     transform="matrix(1.6582734,0,0,1.6542568,-911.68563,-739.48402)"
     id="g7080">
    <path
       inkscape:connector-curvature="0"
       d="m 564.78,463.02 c -0.24234,0.001 -0.52104,0.0664 -0.80589,0.21875 -1.0374,0.54647 -1.992,2.336 -2.5107,4.6562 -0.44216,1.9709 -0.60455,4.666 -0.34095,5.75 0.22958,0.93169 0.62706,1.3438 1.3328,1.3438 1.0459,-0.0179 2.3593,-1.1822 3.1926,-2.75 0.6027,-0.86787 2.0005,-1.2625 3.3476,-1.2188 1.347,-0.0471 2.7448,0.35088 3.3476,1.2188 0.8333,1.5678 2.1467,2.7321 3.1926,2.75 0.70576,0 1.1032,-0.41206 1.3328,-1.3438 0.2636,-1.084 0.10121,-3.7791 -0.34095,-5.75 -0.51869,-2.3203 -1.4733,-4.1098 -2.5107,-4.6562 -0.5697,-0.30459 -1.0402,-0.29563 -1.4568,0 -0.52719,0.37626 -1.6258,0.77958 -3.5645,0.78125 -1.9387,0.002 -3.0373,-0.40499 -3.5645,-0.78125 -0.20832,-0.14782 -0.40857,-0.21987 -0.65091,-0.21875 z m 0.24797,3 h 0.99186 v 1 h 0.99187 v 1 h -0.99187 v 1 h -0.99186 v -1 h -0.99187 v -1 h 0.99187 z m 7.439,0 c 0.2739,0 0.49593,0.22386 0.49593,0.5 0,0.27614 -0.22203,0.5 -0.49593,0.5 -0.2739,0 -0.49593,-0.22386 -0.49593,-0.5 0,-0.27614 0.22203,-0.5 0.49593,-0.5 z m -0.99187,1 c 0.2739,0 0.49594,0.22386 0.49594,0.5 0,0.27614 -0.22204,0.5 -0.49594,0.5 -0.27389,0 -0.49593,-0.22386 -0.49593,-0.5 0,-0.27614 0.22204,-0.5 0.49593,-0.5 z m 1.9837,0 c 0.27389,0 0.49593,0.22386 0.49593,0.5 0,0.27614 -0.22204,0.5 -0.49593,0.5 -0.2739,0 -0.49594,-0.22386 -0.49594,-0.5 0,-0.27614 0.22204,-0.5 0.49594,-0.5 z m -0.99187,1 c 0.2739,0 0.49593,0.22386 0.49593,0.5 0,0.27614 -0.22203,0.5 -0.49593,0.5 -0.2739,0 -0.49593,-0.22386 -0.49593,-0.5 0,-0.27614 0.22203,-0.5 0.49593,-0.5 z"
       id="path7078"
       style="fill:#ffffff;fill-opacity:0.39215686" />
  </g>
</svg>
