<?xml version="1.0" encoding="UTF-8" standalone="no"?>
<svg
   xmlns:dc="http://purl.org/dc/elements/1.1/"
   xmlns:cc="http://creativecommons.org/ns#"
   xmlns:rdf="http://www.w3.org/1999/02/22-rdf-syntax-ns#"
   xmlns:svg="http://www.w3.org/2000/svg"
   xmlns="http://www.w3.org/2000/svg"
   xmlns:xlink="http://www.w3.org/1999/xlink"
   xmlns:sodipodi="http://sodipodi.sourceforge.net/DTD/sodipodi-0.dtd"
   xmlns:inkscape="http://www.inkscape.org/namespaces/inkscape"
   viewBox="0 0 64 64"
   version="1.1"
   id="svg5453"
   height="64"
   width="64"
   sodipodi:docname="folder-github.svg"
   inkscape:version="0.92.2 5c3e80d, 2017-08-06">
  <sodipodi:namedview
     pagecolor="#ffffff"
     bordercolor="#666666"
     borderopacity="1"
     objecttolerance="10"
     gridtolerance="10"
     guidetolerance="10"
     inkscape:pageopacity="0"
     inkscape:pageshadow="2"
     inkscape:window-width="1280"
     inkscape:window-height="995"
     id="namedview13"
     showgrid="false"
     inkscape:zoom="7.375"
     inkscape:cx="35.43198"
     inkscape:cy="38.717361"
     inkscape:window-x="1366"
     inkscape:window-y="0"
     inkscape:window-maximized="1"
     inkscape:current-layer="svg5453" />
  <defs
     id="defs5455">
    <linearGradient
       id="linearGradient831">
      <stop
         style="stop-color:#20bcfa;stop-opacity:1;"
         offset="0"
         id="stop827" />
      <stop
         style="stop-color:#46c7fc;stop-opacity:1"
         offset="1"
         id="stop829" />
    </linearGradient>
    <linearGradient
       xlink:href="#linearGradient831"
       id="linearGradient833"
       x1="32.010437"
       y1="57.89262"
       x2="31.962496"
       y2="15.119835"
       gradientUnits="userSpaceOnUse"
       gradientTransform="translate(0,-3.8146973e-6)" />
    <linearGradient
       gradientTransform="translate(-0.13559352,-0.1355932)"
       gradientUnits="userSpaceOnUse"
       y2="15"
       x2="32"
       y1="58"
       x1="32"
       id="linearGradient829"
       xlink:href="#linearGradient827" />
    <linearGradient
       id="linearGradient827">
      <stop
         id="stop823"
         offset="0"
         style="stop-color:#cd2b2b;stop-opacity:1" />
      <stop
         id="stop825"
         offset="1"
         style="stop-color:#da4646;stop-opacity:1" />
    </linearGradient>
  </defs>
  <metadata
     id="metadata5458">
    <rdf:RDF>
      <cc:Work
         rdf:about="">
        <dc:format>image/svg+xml</dc:format>
        <dc:type
           rdf:resource="http://purl.org/dc/dcmitype/StillImage" />
        <dc:title></dc:title>
      </cc:Work>
    </rdf:RDF>
  </metadata>
  <path
     inkscape:connector-curvature="0"
     id="folderTab"
     d="m 3.8644065,5.864407 c -0.55122,0.05512 -1,0.446 -1,1 v 2 40 H 60.864406 v -35 -1 -2 c 0,-1 -1,-1 -1,-1 h -2 -21 -4 c -2,-4 -6,-4 -6,-4 H 4.8644065 Z"
     style="fill:#9a2020;fill-opacity:1;fill-rule:evenodd;stroke:none;stroke-width:1px;stroke-linecap:butt;stroke-linejoin:miter;stroke-opacity:1" />
  <path
     inkscape:connector-curvature="0"
     id="folderPaper-4"
     d="M 6.8644065,12.864407 H 56.864406 v 32 H 6.8644065 Z"
     style="color:#000000;text-decoration:none;text-decoration-line:none;text-decoration-style:solid;text-decoration-color:#000000;white-space:normal;clip-rule:nonzero;display:inline;overflow:visible;visibility:visible;opacity:1;isolation:auto;mix-blend-mode:normal;color-interpolation:sRGB;color-interpolation-filters:linearRGB;solid-color:#000000;solid-opacity:1;fill:#ffffff;fill-opacity:1;fill-rule:nonzero;stroke:none;stroke-width:1;stroke-linecap:butt;stroke-linejoin:miter;stroke-miterlimit:4;stroke-dasharray:none;stroke-dashoffset:0;stroke-opacity:1;color-rendering:auto;image-rendering:auto;shape-rendering:auto;text-rendering:auto;enable-background:accumulate" />
  <path
     inkscape:connector-curvature="0"
     id="folderFront-8"
     d="m 38.864406,14.864407 c 0,0 -4,0 -6,4 h -4 -24.9999995 -2 c 0,0 -0.131979,0.01691 -0.289062,0.05859 -0.04596,0.01404 -0.09192,0.02277 -0.134766,0.04297 -0.27423,0.109838 -0.57617202,0.34321 -0.57617202,0.89844 v 2 1 34 c 0,0.55397 0.44603002,1 1.00000002,1 H 61.864406 c 0.55397,0 1,-0.44603 1,-1 v -39 -2 c 0,-0.55397 -0.44603,-1 -1,-1 h -1 z"
     style="fill:url(#linearGradient829);fill-opacity:1.0;fill-rule:evenodd;stroke:none;stroke-width:1px;stroke-linecap:butt;stroke-linejoin:miter;stroke-opacity:1" />
  <path
     inkscape:connector-curvature="0"
     id="folderShadow-2"
     d="m 0.86440648,56.864407 c 0,0.55397 0.44603002,1 1.00000002,1 H 61.864406 c 0.55397,0 1,-0.44603 1,-1 z"
     style="opacity:0.25;fill:#000000;fill-opacity:1;stroke:none" />
  <path
     inkscape:connector-curvature="0"
     style="color:#000000;text-decoration:none;text-decoration-line:none;text-decoration-style:solid;text-decoration-color:#000000;white-space:normal;clip-rule:nonzero;display:inline;overflow:visible;visibility:visible;opacity:1;isolation:auto;mix-blend-mode:normal;color-interpolation:sRGB;color-interpolation-filters:linearRGB;solid-color:#000000;solid-opacity:1;fill:#fffbec;fill-opacity:1;fill-rule:nonzero;stroke:none;stroke-width:0.2759482;stroke-linecap:butt;stroke-linejoin:miter;stroke-miterlimit:4;stroke-dasharray:none;stroke-dashoffset:0;stroke-opacity:1;color-rendering:auto;image-rendering:auto;shape-rendering:auto;text-rendering:auto;enable-background:accumulate"
     d="M 6.9680983,13.27245 H 28.760716 v 5.590694 H 6.9680983 Z"
     id="folderPaper-6-3" />
  <path
     inkscape:connector-curvature="0"
     id="rect822"
     d="m 39.621596,25.63842 c -0.257832,0.03528 -0.554257,0.115861 -0.891702,0.243518 -0.674443,0.255301 -1.262066,0.538615 -1.758337,0.845147 l -0.726969,0.458386 c -1.184519,-0.331944 -2.406587,-0.497778 -3.667084,-0.497778 -1.26048,0 -2.482778,0.165844 -3.667082,0.497778 -0.203719,-0.14034 -0.471775,-0.315213 -0.809339,-0.519265 -0.33756,-0.204051 -0.871414,-0.446867 -1.597184,-0.734134 -0.725773,-0.287243 -1.270947,-0.37629 -1.640163,-0.261422 -0.560256,1.442902 -0.607272,2.745279 -0.136085,3.907021 -1.005917,1.085349 -1.507657,2.401238 -1.507657,3.94641 0,1.085352 0.12943,2.042006 0.390343,2.872072 0.260901,0.829836 0.595281,1.501779 1.002718,2.012599 0.407418,0.510602 0.922179,0.937425 1.539889,1.282047 0.617456,0.345086 1.214897,0.595172 1.79415,0.748456 0.579505,0.152973 1.23311,0.267147 1.95888,0.34379 -0.50918,0.459585 -0.823587,1.117512 -0.938258,1.973206 -0.267472,0.127542 -0.554012,0.222722 -0.859472,0.28649 -0.305696,0.06358 -0.66857,0.09668 -1.088666,0.09668 -0.420076,8e-6 -0.836059,-0.137259 -1.249815,-0.411823 -0.413992,-0.27458 -0.766977,-0.67235 -1.060016,-1.196099 -0.241922,-0.408334 -0.551982,-0.740253 -0.927516,-0.995555 -0.375784,-0.255519 -0.690838,-0.410867 -0.945418,-0.461967 l -0.379602,-0.0573 c -0.267491,0 -0.45308,0.02842 -0.555076,0.08593 -0.101214,0.05766 -0.134911,0.132711 -0.09668,0.222031 0.03822,0.08957 0.09545,0.179265 0.171894,0.268586 0.07644,0.08935 0.161554,0.16522 0.250679,0.229193 l 0.132509,0.09668 c 0.280147,0.127651 0.557015,0.369418 0.830825,0.726971 0.273811,0.357316 0.474283,0.684279 0.601631,0.977649 l 0.189799,0.440481 c 0.165514,0.48496 0.44704,0.877999 0.841568,1.178195 0.394762,0.299962 0.819938,0.490289 1.278464,0.572982 0.458281,0.08328 0.902189,0.126642 1.328604,0.132511 0.426646,0.0062 0.779815,-0.01302 1.060015,-0.06446 l 0.440479,-0.07879 c 0,0.484746 0.0013,1.053229 0.0072,1.704621 0.0035,0.378546 0.0052,0.430003 0.0072,0.601631 h 7.280448 v -3.606205 c 0,-1.238618 -0.329954,-2.147131 -0.991973,-2.721663 0.725771,-0.07664 1.375812,-0.190506 1.955299,-0.34379 0.579252,-0.153284 1.18004,-0.403602 1.797731,-0.748457 0.617475,-0.344621 1.133059,-0.766821 1.547049,-1.271302 0.413757,-0.504481 0.748747,-1.175979 1.00988,-2.012601 0.260646,-0.836424 0.393926,-1.797464 0.393926,-2.882814 0,-1.544937 -0.50532,-2.861043 -1.511239,-3.94641 0.471104,-1.161722 0.422512,-2.464103 -0.150423,-3.907005 -0.178275,-0.05748 -0.397514,-0.06752 -0.655348,-0.03224 z"
     style="opacity:1;vector-effect:none;fill:#ffffff;fill-opacity:0.39215686;stroke:none;stroke-width:0.49000004;stroke-linecap:butt;stroke-linejoin:miter;stroke-miterlimit:4;stroke-dasharray:none;stroke-dashoffset:0;stroke-opacity:1" />
</svg>
