<?xml version="1.0" encoding="UTF-8" standalone="no"?>
<svg
   xmlns:dc="http://purl.org/dc/elements/1.1/"
   xmlns:cc="http://creativecommons.org/ns#"
   xmlns:rdf="http://www.w3.org/1999/02/22-rdf-syntax-ns#"
   xmlns:svg="http://www.w3.org/2000/svg"
   xmlns="http://www.w3.org/2000/svg"
   xmlns:xlink="http://www.w3.org/1999/xlink"
   xmlns:sodipodi="http://sodipodi.sourceforge.net/DTD/sodipodi-0.dtd"
   xmlns:inkscape="http://www.inkscape.org/namespaces/inkscape"
   viewBox="0 0 64 64"
   version="1.1"
   id="svg5453"
   height="64"
   width="64"
   sodipodi:docname="folder-books.svg"
   inkscape:version="0.92.2 5c3e80d, 2017-08-06">
  <sodipodi:namedview
     pagecolor="#ffffff"
     bordercolor="#666666"
     borderopacity="1"
     objecttolerance="10"
     gridtolerance="10"
     guidetolerance="10"
     inkscape:pageopacity="0"
     inkscape:pageshadow="2"
     inkscape:window-width="1280"
     inkscape:window-height="995"
     id="namedview13"
     showgrid="false"
     inkscape:zoom="7.375"
     inkscape:cx="35.43198"
     inkscape:cy="49.557286"
     inkscape:window-x="1366"
     inkscape:window-y="0"
     inkscape:window-maximized="1"
     inkscape:current-layer="svg5453" />
  <defs
     id="defs5455">
    <linearGradient
       id="linearGradient831">
      <stop
         style="stop-color:#20bcfa;stop-opacity:1;"
         offset="0"
         id="stop827" />
      <stop
         style="stop-color:#46c7fc;stop-opacity:1"
         offset="1"
         id="stop829" />
    </linearGradient>
    <linearGradient
       xlink:href="#linearGradient831"
       id="linearGradient833"
       x1="32.010437"
       y1="57.89262"
       x2="31.962496"
       y2="15.119835"
       gradientUnits="userSpaceOnUse"
       gradientTransform="translate(0,-3.8146973e-6)" />
    <linearGradient
       gradientTransform="translate(-0.13559352,-0.1355932)"
       gradientUnits="userSpaceOnUse"
       y2="15"
       x2="32"
       y1="58"
       x1="32"
       id="linearGradient829"
       xlink:href="#linearGradient827" />
    <linearGradient
       id="linearGradient827">
      <stop
         id="stop823"
         offset="0"
         style="stop-color:#cd2b2b;stop-opacity:1" />
      <stop
         id="stop825"
         offset="1"
         style="stop-color:#da4646;stop-opacity:1" />
    </linearGradient>
  </defs>
  <metadata
     id="metadata5458">
    <rdf:RDF>
      <cc:Work
         rdf:about="">
        <dc:format>image/svg+xml</dc:format>
        <dc:type
           rdf:resource="http://purl.org/dc/dcmitype/StillImage" />
        <dc:title></dc:title>
      </cc:Work>
    </rdf:RDF>
  </metadata>
  <path
     inkscape:connector-curvature="0"
     id="folderTab"
     d="m 3.8644065,5.864407 c -0.55122,0.05512 -1,0.446 -1,1 v 2 40 H 60.864406 v -35 -1 -2 c 0,-1 -1,-1 -1,-1 h -2 -21 -4 c -2,-4 -6,-4 -6,-4 H 4.8644065 Z"
     style="fill:#9a2020;fill-opacity:1;fill-rule:evenodd;stroke:none;stroke-width:1px;stroke-linecap:butt;stroke-linejoin:miter;stroke-opacity:1" />
  <path
     inkscape:connector-curvature="0"
     id="folderPaper-4"
     d="M 6.8644065,12.864407 H 56.864406 v 32 H 6.8644065 Z"
     style="color:#000000;text-decoration:none;text-decoration-line:none;text-decoration-style:solid;text-decoration-color:#000000;white-space:normal;clip-rule:nonzero;display:inline;overflow:visible;visibility:visible;opacity:1;isolation:auto;mix-blend-mode:normal;color-interpolation:sRGB;color-interpolation-filters:linearRGB;solid-color:#000000;solid-opacity:1;fill:#ffffff;fill-opacity:1;fill-rule:nonzero;stroke:none;stroke-width:1;stroke-linecap:butt;stroke-linejoin:miter;stroke-miterlimit:4;stroke-dasharray:none;stroke-dashoffset:0;stroke-opacity:1;color-rendering:auto;image-rendering:auto;shape-rendering:auto;text-rendering:auto;enable-background:accumulate" />
  <path
     inkscape:connector-curvature="0"
     id="folderFront-8"
     d="m 38.864406,14.864407 c 0,0 -4,0 -6,4 h -4 -24.9999995 -2 c 0,0 -0.131979,0.01691 -0.289062,0.05859 -0.04596,0.01404 -0.09192,0.02277 -0.134766,0.04297 -0.27423,0.109838 -0.57617202,0.34321 -0.57617202,0.89844 v 2 1 34 c 0,0.55397 0.44603002,1 1.00000002,1 H 61.864406 c 0.55397,0 1,-0.44603 1,-1 v -39 -2 c 0,-0.55397 -0.44603,-1 -1,-1 h -1 z"
     style="fill:url(#linearGradient829);fill-opacity:1.0;fill-rule:evenodd;stroke:none;stroke-width:1px;stroke-linecap:butt;stroke-linejoin:miter;stroke-opacity:1" />
  <path
     inkscape:connector-curvature="0"
     id="folderShadow-2"
     d="m 0.86440648,56.864407 c 0,0.55397 0.44603002,1 1.00000002,1 H 61.864406 c 0.55397,0 1,-0.44603 1,-1 z"
     style="opacity:0.25;fill:#000000;fill-opacity:1;stroke:none" />
  <path
     inkscape:connector-curvature="0"
     style="color:#000000;text-decoration:none;text-decoration-line:none;text-decoration-style:solid;text-decoration-color:#000000;white-space:normal;clip-rule:nonzero;display:inline;overflow:visible;visibility:visible;opacity:1;isolation:auto;mix-blend-mode:normal;color-interpolation:sRGB;color-interpolation-filters:linearRGB;solid-color:#000000;solid-opacity:1;fill:#fffbec;fill-opacity:1;fill-rule:nonzero;stroke:none;stroke-width:0.2759482;stroke-linecap:butt;stroke-linejoin:miter;stroke-miterlimit:4;stroke-dasharray:none;stroke-dashoffset:0;stroke-opacity:1;color-rendering:auto;image-rendering:auto;shape-rendering:auto;text-rendering:auto;enable-background:accumulate"
     d="M 6.9680983,13.27245 H 28.760716 v 5.590694 H 6.9680983 Z"
     id="folderPaper-6-3" />
  <path
     inkscape:connector-curvature="0"
     id="path4140"
     d="m 41.735611,27.359762 c -1.21746,-0.39396 -2.55555,-0.56279 -3.8388,-0.56279 -2.13877,0 -4.44204,0.45023 -6.03241,1.68837 -1.59036,-1.23814 -3.89363,-1.68837 -6.03239,-1.68837 -2.13877,0 -4.44204,0.45023 -6.0324,1.68837 v 16.48976 c 0,0.28141 0.2742,0.56281 0.5484,0.56281 0.10968,0 0.16452,-0.0563 0.27421,-0.0563 1.48067,-0.73162 3.61942,-1.23814 5.20979,-1.23814 2.13876,0 4.44203,0.45024 6.0324,1.68837 1.48067,-0.95674 4.16784,-1.68837 6.0324,-1.68837 1.80971,0 3.67427,0.33767 5.20979,1.18186 0.10968,0.0563 0.16452,0.0563 0.2742,0.0563 0.2742,0 0.5484,-0.28139 0.5484,-0.5628 v -16.43349 c -0.65808,-0.50651 -1.37099,-0.84417 -2.19359,-1.12558 m 0,15.19536 c -1.2065,-0.39396 -2.52265,-0.56279 -3.8388,-0.56279 -1.86456,0 -4.55173,0.73162 -6.0324,1.68837 v -12.94418 c 1.48067,-0.95676 4.16784,-1.68839 6.0324,-1.68839 1.31615,0 2.6323,0.16884 3.8388,0.56279 z"
     style="fill:#ffffff;fill-opacity:0.39215686;stroke-width:1.52775931" />
</svg>
